<svg width="38" height="38" viewBox="0 0 38 38" fill="none" xmlns="http://www.w3.org/2000/svg">
<path d="M31.6667 9.5H6.33341C4.58451 9.5 3.16675 10.9178 3.16675 12.6667V25.3333C3.16675 27.0822 4.58451 28.5 6.33341 28.5H31.6667C33.4156 28.5 34.8334 27.0822 34.8334 25.3333V12.6667C34.8334 10.9178 33.4156 9.5 31.6667 9.5Z" stroke="#006FEB" stroke-width="3" stroke-linecap="round" stroke-linejoin="round"/>
<path d="M18.9999 22.1666C20.7488 22.1666 22.1666 20.7488 22.1666 18.9999C22.1666 17.251 20.7488 15.8333 18.9999 15.8333C17.251 15.8333 15.8333 17.251 15.8333 18.9999C15.8333 20.7488 17.251 22.1666 18.9999 22.1666Z" stroke="#006FEB" stroke-width="3" stroke-linecap="round" stroke-linejoin="round"/>
<path d="M9.5 19H9.51583M28.5 19H28.5158" stroke="#006FEB" stroke-width="3" stroke-linecap="round" stroke-linejoin="round"/>
</svg>
