<svg width="32" height="32" viewBox="0 0 32 32" fill="none" xmlns="http://www.w3.org/2000/svg">
<path d="M13.3333 6.66669C12.6708 6.66672 12.032 6.91341 11.5413 7.35869L3.10401 15.012C2.9663 15.137 2.85626 15.2894 2.78095 15.4594C2.70565 15.6295 2.66675 15.8134 2.66675 15.9994C2.66675 16.1853 2.70565 16.3692 2.78095 16.5393C2.85626 16.7093 2.9663 16.8617 3.10401 16.9867L11.5413 24.6414C12.032 25.0866 12.6708 25.3333 13.3333 25.3334H26.6667C27.3739 25.3334 28.0522 25.0524 28.5523 24.5523C29.0524 24.0522 29.3333 23.3739 29.3333 22.6667V9.33335C29.3333 8.62611 29.0524 7.94783 28.5523 7.44774C28.0522 6.94764 27.3739 6.66669 26.6667 6.66669H13.3333Z" fill="#F24E4E"/>
<path d="M16 12L24 20" stroke="white" stroke-width="2" stroke-linecap="round" stroke-linejoin="round"/>
<path d="M24 12L16 20" stroke="white" stroke-width="2" stroke-linecap="round" stroke-linejoin="round"/>
</svg>
