<svg width="32" height="32" viewBox="0 0 32 32" fill="none" xmlns="http://www.w3.org/2000/svg">
<path d="M21.3335 18.6667V21.6L23.4668 22.9333" stroke="#94A3B8" stroke-width="2.5" stroke-linecap="round" stroke-linejoin="round"/>
<path d="M21.3335 5.33334H24.0002C24.7074 5.33334 25.3857 5.61429 25.8858 6.11439C26.3859 6.61449 26.6668 7.29277 26.6668 8.00001V9.10934" stroke="#94A3B8" stroke-width="2.5" stroke-linecap="round" stroke-linejoin="round"/>
<path d="M10.6668 5.33334H8.00016C7.29292 5.33334 6.61464 5.61429 6.11454 6.11439C5.61445 6.61449 5.3335 7.29277 5.3335 8.00001V26.6667C5.3335 27.3739 5.61445 28.0522 6.11454 28.5523C6.61464 29.0524 7.29292 29.3333 8.00016 29.3333H10.6668" stroke="#94A3B8" stroke-width="2.5" stroke-linecap="round" stroke-linejoin="round"/>
<path d="M21.3335 29.3333C25.7518 29.3333 29.3335 25.7516 29.3335 21.3333C29.3335 16.9151 25.7518 13.3333 21.3335 13.3333C16.9152 13.3333 13.3335 16.9151 13.3335 21.3333C13.3335 25.7516 16.9152 29.3333 21.3335 29.3333Z" stroke="#94A3B8" stroke-width="2.5" stroke-linecap="round" stroke-linejoin="round"/>
<path d="M19.9998 2.66666H11.9998C11.2635 2.66666 10.6665 3.26361 10.6665 3.99999V6.66666C10.6665 7.40304 11.2635 7.99999 11.9998 7.99999H19.9998C20.7362 7.99999 21.3332 7.40304 21.3332 6.66666V3.99999C21.3332 3.26361 20.7362 2.66666 19.9998 2.66666Z" stroke="#94A3B8" stroke-width="2.5" stroke-linecap="round" stroke-linejoin="round"/>
</svg>
