<svg width="14" height="14" viewBox="0 0 14 14" fill="none" xmlns="http://www.w3.org/2000/svg">
<g clip-path="url(#clip0_49_585)">
<path d="M3.49984 10.5H2.33317C2.02375 10.5 1.72701 10.3771 1.50821 10.1583C1.28942 9.9395 1.1665 9.64275 1.1665 9.33333V6.41667C1.1665 6.10725 1.28942 5.8105 1.50821 5.59171C1.72701 5.37292 2.02375 5.25 2.33317 5.25H11.6665C11.9759 5.25 12.2727 5.37292 12.4915 5.59171C12.7103 5.8105 12.8332 6.10725 12.8332 6.41667V9.33333C12.8332 9.64275 12.7103 9.9395 12.4915 10.1583C12.2727 10.3771 11.9759 10.5 11.6665 10.5H10.4998" stroke="black" stroke-linecap="round" stroke-linejoin="round"/>
<path d="M3.5 5.24996V1.74996C3.5 1.59525 3.56146 1.44688 3.67085 1.33748C3.78025 1.22808 3.92862 1.16663 4.08333 1.16663H9.91667C10.0714 1.16663 10.2197 1.22808 10.3291 1.33748C10.4385 1.44688 10.5 1.59525 10.5 1.74996V5.24996" stroke="black" stroke-linecap="round" stroke-linejoin="round"/>
<path d="M9.91667 8.16663H4.08333C3.76117 8.16663 3.5 8.42779 3.5 8.74996V12.25C3.5 12.5721 3.76117 12.8333 4.08333 12.8333H9.91667C10.2388 12.8333 10.5 12.5721 10.5 12.25V8.74996C10.5 8.42779 10.2388 8.16663 9.91667 8.16663Z" stroke="black" stroke-linecap="round" stroke-linejoin="round"/>
</g>
<defs>
<clipPath id="clip0_49_585">
<rect width="14" height="14" fill="white"/>
</clipPath>
</defs>
</svg>
