<svg width="38" height="38" viewBox="0 0 38 38" fill="none" xmlns="http://www.w3.org/2000/svg">
<path d="M11.0833 4.75H6.33333C5.45888 4.75 4.75 5.45888 4.75 6.33333V11.0833C4.75 11.9578 5.45888 12.6667 6.33333 12.6667H11.0833C11.9578 12.6667 12.6667 11.9578 12.6667 11.0833V6.33333C12.6667 5.45888 11.9578 4.75 11.0833 4.75Z" stroke="#60758A" stroke-width="2.5" stroke-linecap="round" stroke-linejoin="round"/>
<path d="M31.6666 4.75H26.9166C26.0421 4.75 25.3333 5.45888 25.3333 6.33333V11.0833C25.3333 11.9578 26.0421 12.6667 26.9166 12.6667H31.6666C32.541 12.6667 33.2499 11.9578 33.2499 11.0833V6.33333C33.2499 5.45888 32.541 4.75 31.6666 4.75Z" stroke="#60758A" stroke-width="2.5" stroke-linecap="round" stroke-linejoin="round"/>
<path d="M11.0833 25.3333H6.33333C5.45888 25.3333 4.75 26.0421 4.75 26.9166V31.6666C4.75 32.541 5.45888 33.2499 6.33333 33.2499H11.0833C11.9578 33.2499 12.6667 32.541 12.6667 31.6666V26.9166C12.6667 26.0421 11.9578 25.3333 11.0833 25.3333Z" stroke="#60758A" stroke-width="2.5" stroke-linecap="round" stroke-linejoin="round"/>
<path d="M33.2499 25.3333H28.4999C27.6601 25.3333 26.8546 25.6669 26.2607 26.2607C25.6669 26.8546 25.3333 27.6601 25.3333 28.4999V33.2499" stroke="#60758A" stroke-width="2.5" stroke-linecap="round" stroke-linejoin="round"/>
<path d="M33.25 33.25V33.2658" stroke="#60758A" stroke-width="2.5" stroke-linecap="round" stroke-linejoin="round"/>
<path d="M18.9999 11.0833V15.8333C18.9999 16.6731 18.6663 17.4786 18.0724 18.0724C17.4786 18.6663 16.6731 18.9999 15.8333 18.9999H11.0833" stroke="#60758A" stroke-width="2.5" stroke-linecap="round" stroke-linejoin="round"/>
<path d="M4.75 19H4.76583" stroke="#60758A" stroke-width="2.5" stroke-linecap="round" stroke-linejoin="round"/>
<path d="M19 4.75H19.0158" stroke="#60758A" stroke-width="2.5" stroke-linecap="round" stroke-linejoin="round"/>
<path d="M19 25.3333V25.3491" stroke="#60758A" stroke-width="2.5" stroke-linecap="round" stroke-linejoin="round"/>
<path d="M25.3333 19H26.9166" stroke="#60758A" stroke-width="2.5" stroke-linecap="round" stroke-linejoin="round"/>
<path d="M33.25 19V19.0158" stroke="#60758A" stroke-width="2.5" stroke-linecap="round" stroke-linejoin="round"/>
<path d="M19 33.2501V31.6667" stroke="#60758A" stroke-width="2.5" stroke-linecap="round" stroke-linejoin="round"/>
</svg>
