<svg width="14" height="14" viewBox="0 0 14 14" fill="none" xmlns="http://www.w3.org/2000/svg">
<path d="M8.86667 1.75C9.1744 1.75438 9.46793 1.88018 9.68333 2.1L11.9 4.31667C12.1198 4.53207 12.2456 4.8256 12.25 5.13333V11.0833C12.25 11.3928 12.1271 11.6895 11.9083 11.9083C11.6895 12.1271 11.3928 12.25 11.0833 12.25H2.91667C2.60725 12.25 2.3105 12.1271 2.09171 11.9083C1.87292 11.6895 1.75 11.3928 1.75 11.0833V2.91667C1.75 2.60725 1.87292 2.3105 2.09171 2.09171C2.3105 1.87292 2.60725 1.75 2.91667 1.75H8.86667Z" stroke="black" stroke-linecap="round" stroke-linejoin="round"/>
<path d="M9.91659 12.25V8.16665C9.91659 8.01194 9.85513 7.86356 9.74573 7.75417C9.63634 7.64477 9.48796 7.58331 9.33325 7.58331H4.66659C4.51188 7.58331 4.3635 7.64477 4.25411 7.75417C4.14471 7.86356 4.08325 8.01194 4.08325 8.16665V12.25" stroke="black" stroke-linecap="round" stroke-linejoin="round"/>
<path d="M4.08325 1.75V4.08333C4.08325 4.23804 4.14471 4.38642 4.25411 4.49581C4.3635 4.60521 4.51188 4.66667 4.66659 4.66667H8.74992" stroke="black" stroke-linecap="round" stroke-linejoin="round"/>
</svg>
